<?xml version="1.0" encoding="UTF-8"?>
<svg id="Layer_2" data-name="Layer 2" xmlns="http://www.w3.org/2000/svg" viewBox="0 0 4171.54 1848.2">
  <defs>
    <style>
      .cls-1 {
        fill: #273878;
      }
    </style>
  </defs>
  <g id="Layer_1-2" data-name="Layer 1">
    <path class="cls-1" d="m4123.17,1143.27c19.2,0,34.57,10.61,41.1,23.72,2.99,6.24,4.86,14.54,5.94,20.58,1.03,6.38,1.33,11.64,1.33,11.64v45.47h-282.66c-10.26,0-30.59-.44-44.54-12.62-8.05-6.97-11.25-18.81-12.67-27.2-1.52-8.99-1.32-16.5-1.32-16.5v-547.78h65.21s5.99-.15,13.6,1.62c7.32,1.62,17.09,5.25,24.21,13.26,6.68,7.66,9.33,16.65,10.46,23.38.93,6.14.59,10.75.59,11.98v452.46h178.75Z"/>
    <path class="cls-1" d="m875.35,793.99c-3.88,18.41-5.6,38.55-6.29,58.88-.79,20.72-.54,41.49-.54,60.7,0,38.79,1.23,81.22,4.18,98.51,13.7,78.77,37.96,96.4,67.08,115.74,28.63,19.01,81.86,19.94,82.3,19.94h145.65c20.72,0,33.1,6.97,40.76,17.09,4.37,5.6,6.29,13.85,7.36,19.59,1.18,6.19,1.42,11.44,1.42,11.44v50.43h-175.21c-12.77,0-27.79,0-44.29-1.08-16.7-1.03-34.77-3.14-53.77-7.37-37.96-8.54-79.31-25.63-117.85-59.86-39.14-34.87-57.9-86.57-66.88-133.47-8.99-46.95-8.45-90.31-8.2-109.6,1.62-125.81,37.08-200.06,99.24-247.45,31.28-23.96,75.42-35.65,110.93-41.4,35.8-5.84,64.04-5.89,64.04-5.89h192.35l-.34,46.9s.2,5.74-.88,13.21c-.83,6.83-2.95,16.65-8.54,23.52-6.24,7.91-14.68,11.44-21.12,13.01-6.38,1.52-11.34,1.32-11.34,1.32,0,0-179.29-1.13-233.6,2.11-50.48,3-58.93,18.91-66.44,53.72"/>
    <path class="cls-1" d="m1425.59,1006.26c-8.55-12.23-13.65-20.62-13.65-38.99,0-31.92,29.12-40.07,47.24-40.07h111.86c.44,0,10.31-.1,21.65-1.33,11.69-1.28,23.38-3.54,27.99-7.27,10.61-8.3,16.15-19.05,16.15-38.74v-64.33s.1-1.62-.05-3.93c-.19-2.6-.64-6.29-1.87-10.66-2.4-8.84-7.66-20.53-19.2-31.77-23.32-22.49-63.98-30.74-102.34-30.74h-113.53v505.06h-46.8s-10.51.54-22.69-.98c-11.15-1.37-27.3-4.81-34.72-15.52-12.23-17.73-10.41-35.95-10.21-38.84l.79-499.61s0-4.86,1.23-10.95c1.28-5.94,3.93-14.04,9.82-20.18,11.05-11.83,24.01-14.68,47.14-14.88,12.28-.2,156.45,0,156.45,0,0,0,19.69-.54,46.11,1.37,26.27,1.87,59.71,6.24,87.41,16.21,54.56,19.79,119.97,52.3,119.97,169.37,0,104.64-55,185.03-198.78,188.42,43.61,41.84,228.88,225.74,228.88,225.74h-99.88c-2.8.15-16.65.74-34.42-2.9-19.6-3.88-44.34-12.87-63.64-33.79-35.5-38.6-160.92-200.7-160.92-200.7"/>
    <path class="cls-1" d="m2252.53,640.99c15.12-1.47,27.5-.83,27.5-.83h50.97l-239.34,421.28v182.04h-44.34c-16.4,0-31.18-1.62-31.18-1.62-23.47-1.33-34.42-14.44-39.04-27.21-2.31-6.24-3.1-12.18-3.19-16.55-.3-4.57.1-7.66.1-7.66v-128.71l-230.36-421.53s38.06-.64,80.24.74c46.26,1.42,62.12,35.45,62.46,36.29l148.01,288.55,130.48-244.7s5.5-11.69,13.6-25.63c7.76-13.6,18.61-30.4,29.27-39.48,11.49-9.92,30.54-13.55,44.84-14.98"/>
    <path class="cls-1" d="m2425.37,762.41c-2.01,6.58-2.21,12.57-2.21,12.77,0,0-.79,25.88-.79,42.33,0,21.61,15.22,36.14,36.29,46.46,10.56,5.16,21.95,8.94,32.36,11.83,10.85,2.95,20.58,5.06,27.55,6.53,20.43,4.57,45.77,9.04,72.38,14.88,26.96,5.94,55.1,13.21,80.78,23.28,95.9,37.61,105.09,109.26,106.12,125.96.1,3.78.83,10.75.93,19.89.2,9.33-.49,20.97-2.85,33.93-5.06,25.98-17.53,57.01-47.19,85.3-29.76,28.43-70.27,43.12-102.63,50.73-32.65,7.71-58.19,8.4-58.19,8.4h-239.15v-57.11c0-5.01.25-16.25,6.63-26.66,6.78-10.75,20.23-14.63,29.76-16.3,10.21-1.72,18.95-1.33,18.95-1.33h228.59c.49-.05,9.63-.34,19.79-1.92,10.8-1.67,21.12-4.47,25.14-8.64,4.32-4.67,6.38-10.26,7.27-15.03.88-4.47.69-8.05.69-8.05v-39.04c0-29.95-22.54-49.35-53.38-62.56-15.37-6.58-32.12-11.34-47.68-14.98-15.77-3.63-30.45-6.19-41.3-8.3-59.52-11.54-92.17-22.29-92.17-22.29-112.6-33.05-122.86-99.34-122.86-145.75s15.13-98.31,73.51-138.77c29.17-20.18,62.27-29.56,87.7-33.93,25.78-4.37,44.24-3.68,44.24-3.68h244.5s1.03,30.3-1.62,63.74c-1.62,20.53-15.86,29.71-28.14,33.39-6.14,1.77-11.93,2.41-16.21,2.6-4.62.2-7.56-.15-7.56-.15l-225.89.1c-16.94,0-30.15,1.38-41.69,6.38-6.04,2.7-9.62,9.18-11.69,16.01"/>
    <path class="cls-1" d="m3268.99,691.39s-.3,5.3-1.18,11.59c-.98,5.84-2.75,14.34-7.12,19.94-8.01,10.95-21.56,17.14-47.93,17.14h-113.49v503.78h-47.14s-10.21.05-21.9-1.62c-10.56-1.47-25.93-4.86-33.24-14-6.14-7.86-8.79-16.84-9.87-23.57-1.32-7.02-1.08-11.98-1.08-11.98v-452.96l-168.68.59v-49.84s-.2-5.7,1.08-13.01c1.13-7.02,3.93-16.7,10.56-23.62,6.58-6.83,15.62-10.07,22.25-11.74,6.92-1.72,12.57-1.92,12.57-1.92l405.18.15v51.07Z"/>
    <path class="cls-1" d="m3755.74,1244.21s-8.69.1-19.6-.74c-10.56-.83-24.36-2.55-33.88-6.63-19.3-8.1-24.7-22.49-25.04-23.52l-174.28-476.53-167.65,472.5s-1.77,4.57-5.11,9.72c-3.09,4.81-8.1,11.39-15.27,14.93-12.28,6.24-31.52,9.72-58.58,9.72h-54.07l210.67-559.52s1.77-5.5,4.91-12.18c3.09-6.33,7.86-14.98,14.49-19.99,11.79-8.99,26.27-11.59,39.43-11.59h104.35l233.01,603.81h-53.38Z"/>
    <path class="cls-1" d="m4123.17,1143.27c19.2,0,34.57,10.61,41.1,23.72,2.99,6.24,4.86,14.54,5.94,20.58,1.03,6.38,1.33,11.64,1.33,11.64v45.47h-282.66c-10.26,0-30.59-.44-44.54-12.62-8.05-6.97-11.25-18.81-12.67-27.2-1.52-8.89-1.32-16.5-1.32-16.5v-547.78h65.21s5.99-.15,13.6,1.62c7.32,1.62,17.09,5.25,24.21,13.26,6.68,7.66,9.33,16.65,10.46,23.38.93,6.14.59,10.75.59,11.98v452.46h178.75Z"/>
    <path class="cls-1" d="m4091.86,566.32c-42.97,0-76.8,32.46-76.8,73.91s33.84,74.3,76.26,74.3,76.07-32.75,76.07-74.3-33.44-73.91-75.52-73.91m0,132.98c-33,0-58-26.17-58-59.07s24.99-59.03,57.01-59.03,57.6,26.62,57.6,59.47-24.5,59.07-56.62,58.63"/>
    <path class="cls-1" d="m4118.06,660.47c-2.21-9.92-5.75-15.76-13.06-18.86,8.59-2.75,15.47-8.59,15.47-17.68,0-7.17-3.29-12.62-7.81-15.76-4.91-3.58-11.15-5.79-25.39-5.79-12.08,0-21.6,1.32-28.38,2.21v73.91h17.09v-29.22h8.1c9.57,0,14.14,3.54,15.56,11.2,2.31,8.94,3.54,15.32,5.84,18.02h18.02c-1.38-2.7-3.05-6.73-5.45-18.02m-33.34-23.33h-8.2v-21.26c1.72-.54,4.96-.93,9.43-.93,10.85,0,16.01,4.57,16.01,11.29,0,7.71-7.81,10.9-17.23,10.9"/>
    <path class="cls-1" d="m875.35,793.99c-3.88,18.41-5.6,38.55-6.29,58.88-.79,20.72-.54,41.49-.54,60.7,0,38.79,1.23,81.22,4.18,98.51,13.7,78.77,37.96,96.4,67.08,115.74,28.63,19.01,81.86,19.94,82.3,19.94h145.65c20.72,0,33.1,6.97,40.76,17.09,4.37,5.6,6.29,13.85,7.36,19.59,1.18,6.19,1.42,11.44,1.42,11.44v50.43h-175.21c-12.77,0-27.79,0-44.29-1.08-16.7-1.03-34.77-3.14-53.77-7.37-37.96-8.54-79.31-25.63-117.85-59.86-39.14-34.87-57.9-86.57-66.88-133.47-8.99-46.95-8.45-90.31-8.2-109.6,1.62-125.81,37.08-200.06,99.24-247.45,31.28-23.96,75.42-35.65,110.93-41.4,35.8-5.84,64.04-5.89,64.04-5.89h192.35l-.34,46.9s.2,5.74-.88,13.21c-.83,6.83-2.95,16.65-8.54,23.52-6.24,7.91-14.68,11.44-21.12,13.01-6.38,1.52-11.34,1.32-11.34,1.32,0,0-179.29-1.13-233.6,2.11-50.48,3-58.93,18.91-66.44,53.72"/>
    <path class="cls-1" d="m1425.59,1006.26c-8.55-12.23-13.65-20.62-13.65-38.99,0-31.92,29.12-40.07,47.24-40.07h111.86c.44,0,10.31-.1,21.65-1.33,11.69-1.28,23.38-3.54,27.99-7.27,10.61-8.3,16.15-19.05,16.15-38.74v-64.33s.1-1.62-.05-3.93c-.19-2.6-.64-6.29-1.87-10.66-2.4-8.84-7.66-20.53-19.2-31.77-23.32-22.49-63.98-30.74-102.44-30.74h-113.44v505.06h-46.8s-10.51.54-22.69-.98c-11.15-1.37-27.3-4.81-34.72-15.52-12.23-17.73-10.41-35.95-10.21-38.84l.73-499.61s0-4.86,1.28-10.95c1.28-5.94,3.93-14.04,9.82-20.18,11.05-11.83,24.01-14.68,47.14-14.88,12.28-.2,156.45,0,156.45,0,0,0,19.69-.54,46.11,1.37,26.27,1.87,59.71,6.24,87.41,16.21,54.56,19.79,119.97,52.3,119.97,169.37,0,104.64-55,185.03-198.78,188.42,43.61,41.84,228.88,225.74,228.88,225.74h-99.88c-2.8.15-16.65.74-34.42-2.9-19.6-3.88-44.34-12.87-63.64-33.79-35.5-38.6-160.92-200.7-160.92-200.7"/>
    <path class="cls-1" d="m2252.53,640.99c15.12-1.47,27.5-.83,27.5-.83h50.97l-239.34,421.28v182.04h-44.34c-16.4,0-31.18-1.62-31.18-1.62-23.47-1.33-34.42-14.44-39.04-27.21-2.31-6.24-3.1-12.18-3.19-16.55-.3-4.57.1-7.66.1-7.66v-128.71l-230.36-421.53s38.06-.64,80.24.74c46.26,1.42,62.12,35.45,62.46,36.29l148.01,288.55,130.48-244.7s5.5-11.69,13.6-25.63c7.76-13.6,18.61-30.4,29.27-39.48,11.49-9.92,30.54-13.55,44.84-14.98"/>
    <path class="cls-1" d="m2425.37,762.41c-2.01,6.58-2.21,12.57-2.21,12.77,0,0-.79,25.88-.79,42.33,0,21.61,15.22,36.14,36.29,46.46,10.56,5.16,21.95,8.94,32.36,11.83,10.85,2.95,20.58,4.96,27.55,6.53,20.43,4.57,45.77,9.04,72.38,14.88,26.96,5.94,55.1,13.21,80.78,23.28,95.9,37.61,105.09,109.26,106.12,125.96.1,3.83.83,10.75.93,19.89.2,9.33-.49,20.97-2.85,33.93-5.06,25.98-17.53,57.01-47.19,85.3-29.76,28.43-70.27,43.12-102.63,50.73-32.65,7.71-58.19,8.4-58.19,8.4h-239.15v-57.11c0-5.01.25-16.25,6.63-26.66,6.78-10.75,20.23-14.63,29.76-16.3,10.21-1.72,18.95-1.33,18.95-1.33h228.59c.49-.05,9.63-.34,19.79-1.92,10.8-1.67,21.12-4.47,25.14-8.64,4.32-4.67,6.38-10.26,7.27-15.03.88-4.47.69-8.05.69-8.05v-39.04c0-29.95-22.54-49.35-53.38-62.56-15.37-6.58-32.12-11.34-47.68-14.98-15.77-3.63-30.45-6.19-41.3-8.3-59.52-11.54-92.17-22.29-92.17-22.29-112.6-33.05-122.86-99.34-122.86-145.75s15.13-98.31,73.51-138.77c29.17-20.18,62.27-29.56,87.7-33.93,25.78-4.37,44.24-3.63,44.24-3.63h244.5s1.03,30.25-1.62,63.69c-1.62,20.53-15.86,29.71-28.14,33.39-6.14,1.77-11.93,2.41-16.21,2.6-4.62.2-7.56-.15-7.56-.15l-225.89.1c-16.94,0-30.15,1.38-41.69,6.38-6.04,2.7-9.62,9.18-11.69,16.01"/>
    <path class="cls-1" d="m3268.99,691.39s-.3,5.3-1.18,11.64c-.98,5.79-2.75,14.29-7.12,19.99-8.01,10.85-21.56,17.04-47.93,17.04h-113.49v503.78h-47.14s-10.21.05-21.9-1.62c-10.56-1.47-25.93-4.86-33.24-14-6.14-7.86-8.79-16.84-9.87-23.57-1.32-7.02-1.08-11.98-1.08-11.98v-452.96l-168.68.59v-49.84s-.2-5.7,1.08-13.01c1.13-7.02,3.93-16.7,10.56-23.62,6.58-6.83,15.62-10.07,22.25-11.74,6.92-1.72,12.57-1.92,12.57-1.92l405.18.15v51.07Z"/>
    <path class="cls-1" d="m1564.47,551.07c-13.65,8.64-26.62,13.46-42.38,13.46-26.96,0-44.93-15.03-60.65-37.57-160.63-229.42-427.86-379.54-729.92-379.54-166.03,0-321.55,45.37-454.58,124.39C446.07,103.86,679.38,0,936.94,0c338.88,0,635.63,179.68,799.6,448.54l-172.07,102.53Z"/>
    <path class="cls-1" d="m.98,991.2C-20.58,556.42,316.63,218.37,754.22,236.1c58.19,2.36,115.2,10.85,170.45,24.85-434.69,50.48-772.1,418.43-772.1,865.01,0,162.93,44.93,315.26,123.06,445.59C116.77,1422.01,12.17,1215.67.98,991.2"/>
    <path class="cls-1" d="m242.1,1105.17c3.29-58.09,12.62-115.4,27.15-171.38,48.57,430.96,417.16,765.91,864.71,765.91,172.21,0,332.94-49.6,468.18-135.34-155.86,150.51-357.15,254.22-572.83,278.48-460.86,51.86-813.39-278.33-787.22-737.67"/>
    <path class="cls-1" d="m1702.58,1370.29c-128.56,145.26-321.6,236.69-541.99,236.69-78.57,0-155.03-11.64-227.41-33.25,10.12.49,20.38.74,30.59.74,225.35,0,422.41-120.36,529.91-300.09,6.48-11.25,17.97-13.8,29.91-8.64l178.99,104.55Z"/>
  </g>
</svg>